<mxfile host="app.diagrams.net" modified="2022-02-16T08:05:58.392Z" agent="5.0 (Windows NT 10.0; Win64; x64) AppleWebKit/537.36 (KHTML, like Gecko) Chrome/98.0.4758.80 Safari/537.36 Edg/98.0.1108.50" etag="RvDdV-Rnx_tYou-0jp3d" version="16.5.6" type="github" pages="4">
  <diagram id="JhzkgyImC-D4xN26EuLz" name="BI Life Cycle">
    <mxGraphModel dx="522" dy="561" grid="1" gridSize="10" guides="1" tooltips="1" connect="1" arrows="1" fold="1" page="1" pageScale="1" pageWidth="850" pageHeight="1100" math="0" shadow="0">
      <root>
        <mxCell id="0" />
        <mxCell id="1" parent="0" />
        <mxCell id="8UzQynJ_HaTBU1YiGK5f-9" style="edgeStyle=orthogonalEdgeStyle;rounded=0;orthogonalLoop=1;jettySize=auto;html=1;" edge="1" parent="1" source="8UzQynJ_HaTBU1YiGK5f-2" target="8UzQynJ_HaTBU1YiGK5f-7">
          <mxGeometry relative="1" as="geometry" />
        </mxCell>
        <mxCell id="8UzQynJ_HaTBU1YiGK5f-2" value="XML" style="rounded=1;whiteSpace=wrap;html=1;" vertex="1" parent="1">
          <mxGeometry x="80" y="175" width="55" height="30" as="geometry" />
        </mxCell>
        <mxCell id="8UzQynJ_HaTBU1YiGK5f-8" style="edgeStyle=orthogonalEdgeStyle;rounded=0;orthogonalLoop=1;jettySize=auto;html=1;curved=1;" edge="1" parent="1" source="8UzQynJ_HaTBU1YiGK5f-3" target="8UzQynJ_HaTBU1YiGK5f-7">
          <mxGeometry relative="1" as="geometry" />
        </mxCell>
        <mxCell id="8UzQynJ_HaTBU1YiGK5f-3" value="CSV" style="rounded=1;whiteSpace=wrap;html=1;" vertex="1" parent="1">
          <mxGeometry x="80" y="110" width="50" height="30" as="geometry" />
        </mxCell>
        <mxCell id="8UzQynJ_HaTBU1YiGK5f-10" value="" style="edgeStyle=orthogonalEdgeStyle;rounded=0;orthogonalLoop=1;jettySize=auto;html=1;curved=1;" edge="1" parent="1" source="8UzQynJ_HaTBU1YiGK5f-4" target="8UzQynJ_HaTBU1YiGK5f-7">
          <mxGeometry relative="1" as="geometry" />
        </mxCell>
        <mxCell id="8UzQynJ_HaTBU1YiGK5f-4" value="Binary" style="rounded=1;whiteSpace=wrap;html=1;" vertex="1" parent="1">
          <mxGeometry x="80" y="240" width="60" height="30" as="geometry" />
        </mxCell>
        <mxCell id="8UzQynJ_HaTBU1YiGK5f-13" value="" style="edgeStyle=orthogonalEdgeStyle;rounded=0;orthogonalLoop=1;jettySize=auto;html=1;" edge="1" parent="1" source="8UzQynJ_HaTBU1YiGK5f-7" target="8UzQynJ_HaTBU1YiGK5f-12">
          <mxGeometry relative="1" as="geometry" />
        </mxCell>
        <mxCell id="8UzQynJ_HaTBU1YiGK5f-7" value="Data" style="rounded=0;whiteSpace=wrap;html=1;" vertex="1" parent="1">
          <mxGeometry x="210" y="160" width="120" height="60" as="geometry" />
        </mxCell>
        <mxCell id="8UzQynJ_HaTBU1YiGK5f-17" value="" style="edgeStyle=orthogonalEdgeStyle;rounded=0;orthogonalLoop=1;jettySize=auto;html=1;" edge="1" parent="1" source="8UzQynJ_HaTBU1YiGK5f-12" target="8UzQynJ_HaTBU1YiGK5f-14">
          <mxGeometry relative="1" as="geometry" />
        </mxCell>
        <mxCell id="8UzQynJ_HaTBU1YiGK5f-12" value="ETL" style="rounded=0;whiteSpace=wrap;html=1;" vertex="1" parent="1">
          <mxGeometry x="440" y="160" width="120" height="60" as="geometry" />
        </mxCell>
        <mxCell id="8UzQynJ_HaTBU1YiGK5f-18" value="" style="edgeStyle=orthogonalEdgeStyle;rounded=0;orthogonalLoop=1;jettySize=auto;html=1;shape=link;" edge="1" parent="1" source="8UzQynJ_HaTBU1YiGK5f-14" target="8UzQynJ_HaTBU1YiGK5f-15">
          <mxGeometry relative="1" as="geometry" />
        </mxCell>
        <mxCell id="8UzQynJ_HaTBU1YiGK5f-14" value="DW" style="shape=cylinder3;whiteSpace=wrap;html=1;boundedLbl=1;backgroundOutline=1;size=15;" vertex="1" parent="1">
          <mxGeometry x="610" y="145" width="60" height="80" as="geometry" />
        </mxCell>
        <mxCell id="8UzQynJ_HaTBU1YiGK5f-15" value="Analysis" style="rounded=0;whiteSpace=wrap;html=1;" vertex="1" parent="1">
          <mxGeometry x="720" y="160" width="130" height="60" as="geometry" />
        </mxCell>
        <mxCell id="8UzQynJ_HaTBU1YiGK5f-20" value="" style="edgeStyle=orthogonalEdgeStyle;shape=link;rounded=0;orthogonalLoop=1;jettySize=auto;html=1;" edge="1" parent="1" source="8UzQynJ_HaTBU1YiGK5f-19" target="8UzQynJ_HaTBU1YiGK5f-15">
          <mxGeometry relative="1" as="geometry" />
        </mxCell>
        <mxCell id="8UzQynJ_HaTBU1YiGK5f-23" value="" style="edgeStyle=orthogonalEdgeStyle;shape=link;rounded=0;orthogonalLoop=1;jettySize=auto;html=1;" edge="1" parent="1" source="8UzQynJ_HaTBU1YiGK5f-19">
          <mxGeometry relative="1" as="geometry">
            <mxPoint x="630" y="360" as="targetPoint" />
          </mxGeometry>
        </mxCell>
        <mxCell id="8UzQynJ_HaTBU1YiGK5f-19" value="Cube" style="shape=cube;whiteSpace=wrap;html=1;boundedLbl=1;backgroundOutline=1;darkOpacity=0.05;darkOpacity2=0.1;" vertex="1" parent="1">
          <mxGeometry x="730" y="320" width="120" height="80" as="geometry" />
        </mxCell>
        <mxCell id="8UzQynJ_HaTBU1YiGK5f-26" value="Reporting" style="rounded=0;whiteSpace=wrap;html=1;" vertex="1" parent="1">
          <mxGeometry x="510" y="330" width="120" height="60" as="geometry" />
        </mxCell>
        <mxCell id="8UzQynJ_HaTBU1YiGK5f-28" value="" style="edgeStyle=orthogonalEdgeStyle;shape=link;rounded=0;orthogonalLoop=1;jettySize=auto;html=1;" edge="1" parent="1" source="8UzQynJ_HaTBU1YiGK5f-27" target="8UzQynJ_HaTBU1YiGK5f-26">
          <mxGeometry relative="1" as="geometry" />
        </mxCell>
        <mxCell id="8UzQynJ_HaTBU1YiGK5f-27" value="Information" style="rounded=0;whiteSpace=wrap;html=1;" vertex="1" parent="1">
          <mxGeometry x="290" y="330" width="120" height="60" as="geometry" />
        </mxCell>
      </root>
    </mxGraphModel>
  </diagram>
  <diagram id="Y_lWf4qPFcXqctHnYwXb" name="Power BI">
    <mxGraphModel dx="1038" dy="571" grid="1" gridSize="10" guides="1" tooltips="1" connect="1" arrows="1" fold="1" page="1" pageScale="1" pageWidth="850" pageHeight="1100" math="0" shadow="0">
      <root>
        <mxCell id="PrLqWZvnRohKOz_KjmCJ-0" />
        <mxCell id="PrLqWZvnRohKOz_KjmCJ-1" parent="PrLqWZvnRohKOz_KjmCJ-0" />
        <mxCell id="PrLqWZvnRohKOz_KjmCJ-5" style="rounded=0;orthogonalLoop=1;jettySize=auto;html=1;entryX=0.5;entryY=0;entryDx=0;entryDy=0;exitX=0.5;exitY=1;exitDx=0;exitDy=0;edgeStyle=orthogonalEdgeStyle;" edge="1" parent="PrLqWZvnRohKOz_KjmCJ-1" source="PrLqWZvnRohKOz_KjmCJ-2" target="PrLqWZvnRohKOz_KjmCJ-3">
          <mxGeometry relative="1" as="geometry">
            <mxPoint x="260" y="150" as="sourcePoint" />
          </mxGeometry>
        </mxCell>
        <mxCell id="PrLqWZvnRohKOz_KjmCJ-6" style="edgeStyle=orthogonalEdgeStyle;rounded=0;orthogonalLoop=1;jettySize=auto;html=1;" edge="1" parent="PrLqWZvnRohKOz_KjmCJ-1" source="PrLqWZvnRohKOz_KjmCJ-2" target="PrLqWZvnRohKOz_KjmCJ-4">
          <mxGeometry relative="1" as="geometry">
            <Array as="points">
              <mxPoint x="260" y="170" />
              <mxPoint x="425" y="170" />
            </Array>
          </mxGeometry>
        </mxCell>
        <mxCell id="PrLqWZvnRohKOz_KjmCJ-2" value="Power BI" style="rounded=0;whiteSpace=wrap;html=1;" vertex="1" parent="PrLqWZvnRohKOz_KjmCJ-1">
          <mxGeometry x="200" y="80" width="120" height="60" as="geometry" />
        </mxCell>
        <mxCell id="PrLqWZvnRohKOz_KjmCJ-11" value="" style="edgeStyle=orthogonalEdgeStyle;rounded=0;orthogonalLoop=1;jettySize=auto;html=1;" edge="1" parent="PrLqWZvnRohKOz_KjmCJ-1" source="PrLqWZvnRohKOz_KjmCJ-3" target="PrLqWZvnRohKOz_KjmCJ-7">
          <mxGeometry relative="1" as="geometry" />
        </mxCell>
        <mxCell id="PrLqWZvnRohKOz_KjmCJ-3" value="Power BI Desktop" style="rounded=1;whiteSpace=wrap;html=1;" vertex="1" parent="PrLqWZvnRohKOz_KjmCJ-1">
          <mxGeometry x="70" y="200" width="120" height="60" as="geometry" />
        </mxCell>
        <mxCell id="PrLqWZvnRohKOz_KjmCJ-9" value="" style="edgeStyle=orthogonalEdgeStyle;rounded=0;orthogonalLoop=1;jettySize=auto;html=1;" edge="1" parent="PrLqWZvnRohKOz_KjmCJ-1" source="PrLqWZvnRohKOz_KjmCJ-4" target="PrLqWZvnRohKOz_KjmCJ-8">
          <mxGeometry relative="1" as="geometry" />
        </mxCell>
        <mxCell id="PrLqWZvnRohKOz_KjmCJ-4" value="Power BI Service" style="rounded=1;whiteSpace=wrap;html=1;" vertex="1" parent="PrLqWZvnRohKOz_KjmCJ-1">
          <mxGeometry x="365" y="200" width="120" height="60" as="geometry" />
        </mxCell>
        <mxCell id="PrLqWZvnRohKOz_KjmCJ-7" value="&lt;ul&gt;&lt;li&gt;Installed on Desktop&lt;/li&gt;&lt;li&gt;Developer creates a report and generates a .pbix file&lt;/li&gt;&lt;li&gt;Generated file will be pushed to the Power BI Service [on the required workspace]&lt;/li&gt;&lt;/ul&gt;" style="shape=note;whiteSpace=wrap;html=1;backgroundOutline=1;darkOpacity=0.05;align=left;" vertex="1" parent="PrLqWZvnRohKOz_KjmCJ-1">
          <mxGeometry x="40" y="310" width="190" height="190" as="geometry" />
        </mxCell>
        <mxCell id="PrLqWZvnRohKOz_KjmCJ-8" value="&lt;ul&gt;&lt;li&gt;Once the File pushed to the service, user can see 2 types of files on the workspace:&lt;br&gt;1&amp;gt; Report&amp;nbsp;&lt;br&gt;2&amp;gt; Dataset&lt;/li&gt;&lt;/ul&gt;" style="shape=note;whiteSpace=wrap;html=1;backgroundOutline=1;darkOpacity=0.05;align=left;" vertex="1" parent="PrLqWZvnRohKOz_KjmCJ-1">
          <mxGeometry x="340" y="320" width="190" height="180" as="geometry" />
        </mxCell>
      </root>
    </mxGraphModel>
  </diagram>
  <diagram id="32WvWOO6G4Cik-zciEL9" name="SSAS Cubes">
    <mxGraphModel dx="1038" dy="571" grid="1" gridSize="10" guides="1" tooltips="1" connect="1" arrows="1" fold="1" page="1" pageScale="1" pageWidth="850" pageHeight="1100" math="0" shadow="0">
      <root>
        <mxCell id="PuivGJuVg-wQoTGAMXvK-0" />
        <mxCell id="PuivGJuVg-wQoTGAMXvK-1" parent="PuivGJuVg-wQoTGAMXvK-0" />
        <mxCell id="PuivGJuVg-wQoTGAMXvK-6" style="edgeStyle=orthogonalEdgeStyle;rounded=0;orthogonalLoop=1;jettySize=auto;html=1;" edge="1" parent="PuivGJuVg-wQoTGAMXvK-1" source="PuivGJuVg-wQoTGAMXvK-3" target="PuivGJuVg-wQoTGAMXvK-4">
          <mxGeometry relative="1" as="geometry" />
        </mxCell>
        <mxCell id="PuivGJuVg-wQoTGAMXvK-7" style="edgeStyle=orthogonalEdgeStyle;rounded=0;orthogonalLoop=1;jettySize=auto;html=1;" edge="1" parent="PuivGJuVg-wQoTGAMXvK-1" source="PuivGJuVg-wQoTGAMXvK-3" target="PuivGJuVg-wQoTGAMXvK-5">
          <mxGeometry relative="1" as="geometry">
            <Array as="points">
              <mxPoint x="420" y="240" />
              <mxPoint x="655" y="240" />
            </Array>
          </mxGeometry>
        </mxCell>
        <mxCell id="PuivGJuVg-wQoTGAMXvK-3" value="SSAS Cubes" style="shape=cube;whiteSpace=wrap;html=1;boundedLbl=1;backgroundOutline=1;darkOpacity=0.05;darkOpacity2=0.1;" vertex="1" parent="PuivGJuVg-wQoTGAMXvK-1">
          <mxGeometry x="320" y="80" width="200" height="90" as="geometry" />
        </mxCell>
        <mxCell id="PuivGJuVg-wQoTGAMXvK-10" value="" style="edgeStyle=orthogonalEdgeStyle;rounded=0;orthogonalLoop=1;jettySize=auto;html=1;fontColor=default;" edge="1" parent="PuivGJuVg-wQoTGAMXvK-1" source="PuivGJuVg-wQoTGAMXvK-4" target="PuivGJuVg-wQoTGAMXvK-9">
          <mxGeometry relative="1" as="geometry" />
        </mxCell>
        <mxCell id="PuivGJuVg-wQoTGAMXvK-4" value="Multi-Dimensional&lt;br&gt;[m-OLAP]" style="rounded=0;whiteSpace=wrap;html=1;" vertex="1" parent="PuivGJuVg-wQoTGAMXvK-1">
          <mxGeometry x="160" y="300" width="180" height="60" as="geometry" />
        </mxCell>
        <mxCell id="PuivGJuVg-wQoTGAMXvK-12" value="" style="edgeStyle=orthogonalEdgeStyle;rounded=0;orthogonalLoop=1;jettySize=auto;html=1;fontColor=default;" edge="1" parent="PuivGJuVg-wQoTGAMXvK-1" source="PuivGJuVg-wQoTGAMXvK-5" target="PuivGJuVg-wQoTGAMXvK-11">
          <mxGeometry relative="1" as="geometry" />
        </mxCell>
        <mxCell id="PuivGJuVg-wQoTGAMXvK-5" value="Tabular" style="rounded=0;whiteSpace=wrap;html=1;" vertex="1" parent="PuivGJuVg-wQoTGAMXvK-1">
          <mxGeometry x="560" y="300" width="190" height="60" as="geometry" />
        </mxCell>
        <mxCell id="PuivGJuVg-wQoTGAMXvK-8" value="SSAS cubes has 2 types of models :" style="text;html=1;strokeColor=none;fillColor=none;align=center;verticalAlign=middle;whiteSpace=wrap;rounded=0;labelBackgroundColor=default;" vertex="1" parent="PuivGJuVg-wQoTGAMXvK-1">
          <mxGeometry x="420" y="190" width="240" height="40" as="geometry" />
        </mxCell>
        <mxCell id="PuivGJuVg-wQoTGAMXvK-9" value="For multidimensional models, we are processing dimensions and cube partitions" style="text;strokeColor=none;fillColor=none;align=left;verticalAlign=middle;whiteSpace=wrap;rounded=0;fontColor=default;labelBackgroundColor=default;" vertex="1" parent="PuivGJuVg-wQoTGAMXvK-1">
          <mxGeometry x="120" y="400" width="240" height="60" as="geometry" />
        </mxCell>
        <mxCell id="PuivGJuVg-wQoTGAMXvK-11" value="For tabular models, we are processing tables and partitions." style="text;strokeColor=none;fillColor=none;align=left;verticalAlign=middle;whiteSpace=wrap;rounded=0;fontColor=default;labelBackgroundColor=default;" vertex="1" parent="PuivGJuVg-wQoTGAMXvK-1">
          <mxGeometry x="560" y="390" width="240" height="70" as="geometry" />
        </mxCell>
      </root>
    </mxGraphModel>
  </diagram>
  <diagram id="-tgfkHnamFS5OOfSuGr3" name="Page-3">
    <mxGraphModel dx="1038" dy="571" grid="1" gridSize="10" guides="1" tooltips="1" connect="1" arrows="1" fold="1" page="1" pageScale="1" pageWidth="850" pageHeight="1100" math="0" shadow="0">
      <root>
        <mxCell id="PNfwx2TKsF5dFHJ5w1FN-0" />
        <mxCell id="PNfwx2TKsF5dFHJ5w1FN-1" parent="PNfwx2TKsF5dFHJ5w1FN-0" />
        <mxCell id="PNfwx2TKsF5dFHJ5w1FN-4" value="" style="edgeStyle=orthogonalEdgeStyle;rounded=0;orthogonalLoop=1;jettySize=auto;html=1;" edge="1" parent="PNfwx2TKsF5dFHJ5w1FN-1" source="PNfwx2TKsF5dFHJ5w1FN-2" target="PNfwx2TKsF5dFHJ5w1FN-3">
          <mxGeometry relative="1" as="geometry" />
        </mxCell>
        <mxCell id="PNfwx2TKsF5dFHJ5w1FN-2" value="Data coming on the SQL Server [OLTP]" style="rounded=0;whiteSpace=wrap;html=1;" vertex="1" parent="PNfwx2TKsF5dFHJ5w1FN-1">
          <mxGeometry x="320" y="80" width="240" height="60" as="geometry" />
        </mxCell>
        <mxCell id="PNfwx2TKsF5dFHJ5w1FN-3" value="Data Coming on SSAS&amp;nbsp;&lt;br&gt;[OLAP]" style="rounded=0;whiteSpace=wrap;html=1;" vertex="1" parent="PNfwx2TKsF5dFHJ5w1FN-1">
          <mxGeometry x="320" y="240" width="240" height="60" as="geometry" />
        </mxCell>
        <mxCell id="PNfwx2TKsF5dFHJ5w1FN-5" value="" style="strokeWidth=2;html=1;shape=mxgraph.flowchart.database;whiteSpace=wrap;" vertex="1" parent="PNfwx2TKsF5dFHJ5w1FN-1">
          <mxGeometry x="660" y="80" width="60" height="60" as="geometry" />
        </mxCell>
        <mxCell id="PNfwx2TKsF5dFHJ5w1FN-6" value="" style="shape=cube;whiteSpace=wrap;html=1;boundedLbl=1;backgroundOutline=1;darkOpacity=0.05;darkOpacity2=0.1;" vertex="1" parent="PNfwx2TKsF5dFHJ5w1FN-1">
          <mxGeometry x="650" y="240" width="90" height="60" as="geometry" />
        </mxCell>
        <mxCell id="PNfwx2TKsF5dFHJ5w1FN-7" value="Reports are generated in POWER BI, using SSAS Cubes" style="rounded=1;whiteSpace=wrap;html=1;" vertex="1" parent="PNfwx2TKsF5dFHJ5w1FN-1">
          <mxGeometry x="320" y="440" width="240" height="60" as="geometry" />
        </mxCell>
      </root>
    </mxGraphModel>
  </diagram>
</mxfile>
